<?xml version='1.0' encoding='UTF-8'?>
<!DOCTYPE score-partwise PUBLIC "-//Recordare//DTD MusicXML 1.1 Partwise//EN" "http://www.musicxml.org/dtds/partwise.dtd">
<score-partwise version='1.1'>
  <work>
    <work-title>Orange Blossoms in Summertime</work-title>
  </work>
  <identification>
    <creator type='composer'>Curtis Landy</creator>
    <creator type='lyricist'>Kurt Elling</creator>
    <encoding>
      <encoding-date>2011-09-02</encoding-date>
      <software>VocalEasel 1.5a1</software>
    </encoding>
  </identification>
  <part-list>
    <score-part id='MELO'>
      <part-name print-object='no'>Song</part-name>
    </score-part>
  </part-list>
  <part id='MELO'>
    <measure number='1'>
      <direction>
        <direction-type>
          <metronome>
            <beat-unit>quarter</beat-unit>
            <per-minute>80</per-minute>
          </metronome>
        </direction-type>
        <sound tempo='80'/>
      </direction>
      <direction placement='above'>
        <direction-type>
          <words>CountryWaltz</words>
        </direction-type>
      </direction>
      <attributes>
        <divisions>3</divisions>
        <key>
          <fifths>-3</fifths>
          <mode>minor</mode>
        </key>
        <time>
          <beats>3</beats>
          <beat-type>4</beat-type>
        </time>
        <clef>
          <sign>G</sign>
          <line>2</line>
        </clef>
      </attributes>
      <note>
        <rest/>
        <duration>3</duration>
        <voice>1</voice>
        <type>quarter</type>
        <accidental>flat</accidental>
      </note>
      <note>
        <rest/>
        <duration>2</duration>
        <voice>1</voice>
        <type>eighth</type>
      </note>
      <note>
        <pitch>
          <step>C</step>
          <octave>4</octave>
        </pitch>
        <duration>1</duration>
        <voice>1</voice>
        <type>eighth</type>
        <accidental>natural</accidental>
        <lyric number='1'>
          <syllabic>single</syllabic>
          <text>When</text>
        </lyric>
        <lyric number='2'>
          <syllabic>single</syllabic>
          <text>(And</text>
        </lyric>
      </note>
      <note>
        <pitch>
          <step>E</step>
          <alter>-1</alter>
          <octave>4</octave>
        </pitch>
        <duration>1</duration>
        <voice>1</voice>
        <type>eighth</type>
        <notations>
          <tuplet type='start'/>
        </notations>
        <time-modification>
          <actual-notes>3</actual-notes>
          <normal-notes>2</normal-notes>
        </time-modification>
        <lyric number='1'>
          <syllabic>begin</syllabic>
          <text>win</text>
        </lyric>
        <lyric number='2'>
          <syllabic>single</syllabic>
          <text>when</text>
        </lyric>
      </note>
      <note>
        <pitch>
          <step>F</step>
          <octave>4</octave>
        </pitch>
        <duration>1</duration>
        <voice>1</voice>
        <type>eighth</type>
        <time-modification>
          <actual-notes>3</actual-notes>
          <normal-notes>2</normal-notes>
        </time-modification>
        <lyric number='1'>
          <syllabic>end</syllabic>
          <text>ter</text>
        </lyric>
        <lyric number='2'>
          <syllabic>single</syllabic>
          <text>we</text>
        </lyric>
      </note>
      <note>
        <pitch>
          <step>G</step>
          <alter>-1</alter>
          <octave>4</octave>
        </pitch>
        <duration>1</duration>
        <voice>1</voice>
        <type>eighth</type>
        <notations>
          <tuplet type='stop'/>
        </notations>
        <time-modification>
          <actual-notes>3</actual-notes>
          <normal-notes>2</normal-notes>
        </time-modification>
        <lyric number='1'>
          <syllabic>single</syllabic>
          <text>is</text>
        </lyric>
        <lyric number='2'>
          <syllabic>single</syllabic>
          <text>are)</text>
        </lyric>
      </note>
    </measure>
    <measure number='2'>
      <barline location='left'>
        <bar-style>heavy-light</bar-style>
        <repeat direction='forward'/>
      </barline>
      <harmony>
        <root>
          <root-step>C</root-step>
        </root>
        <kind>minor-seventh</kind>
      </harmony>
      <note>
        <pitch>
          <step>G</step>
          <octave>4</octave>
        </pitch>
        <duration>3</duration>
        <voice>1</voice>
        <type>quarter</type>
        <accidental>natural</accidental>
        <lyric number='1'>
          <syllabic>single</syllabic>
          <text>on</text>
        </lyric>
        <lyric number='2'>
          <syllabic>single</syllabic>
          <text>far</text>
        </lyric>
      </note>
      <note>
        <pitch>
          <step>E</step>
          <alter>-1</alter>
          <octave>4</octave>
        </pitch>
        <duration>2</duration>
        <voice>1</voice>
        <type>eighth</type>
        <lyric number='1'>
          <syllabic>begin</syllabic>
          <text>a</text>
        </lyric>
        <lyric number='2'>
          <syllabic>begin</syllabic>
          <text>a</text>
        </lyric>
      </note>
      <note>
        <pitch>
          <step>C</step>
          <octave>4</octave>
        </pitch>
        <duration>1</duration>
        <tie type='start'/>
        <voice>1</voice>
        <type>eighth</type>
        <notations>
          <tied type='start'/>
        </notations>
        <lyric number='1'>
          <syllabic>end</syllabic>
          <text>gain</text>
        </lyric>
        <lyric number='2'>
          <syllabic>end</syllabic>
          <text>part</text>
        </lyric>
      </note>
      <note>
        <pitch>
          <step>C</step>
          <octave>4</octave>
        </pitch>
        <duration>3</duration>
        <tie type='stop'/>
        <voice>1</voice>
        <type>quarter</type>
        <notations>
          <tied type='stop'/>
        </notations>
      </note>
    </measure>
    <measure number='3'>
      <harmony>
        <root>
          <root-step>B</root-step>
          <root-alter>-1</root-alter>
        </root>
        <kind>dominant</kind>
      </harmony>
      <note>
        <pitch>
          <step>F</step>
          <octave>4</octave>
        </pitch>
        <duration>2</duration>
        <voice>1</voice>
        <type>eighth</type>
        <lyric number='1'>
          <syllabic>begin</syllabic>
          <text>fra</text>
        </lyric>
        <lyric number='2'>
          <syllabic>single</syllabic>
          <text>and</text>
        </lyric>
      </note>
      <note>
        <pitch>
          <step>D</step>
          <octave>4</octave>
        </pitch>
        <duration>3</duration>
        <voice>1</voice>
        <type>quarter</type>
        <lyric number='1'>
          <syllabic>end</syllabic>
          <text>grance</text>
        </lyric>
        <lyric number='2'>
          <syllabic>single</syllabic>
          <text>my</text>
        </lyric>
      </note>
      <note>
        <pitch>
          <step>B</step>
          <alter>-1</alter>
          <octave>3</octave>
        </pitch>
        <duration>1</duration>
        <tie type='start'/>
        <voice>1</voice>
        <type>eighth</type>
        <notations>
          <tied type='start'/>
        </notations>
        <lyric number='1'>
          <syllabic>single</syllabic>
          <text>ends</text>
        </lyric>
        <lyric number='2'>
          <syllabic>single</syllabic>
          <text>heart</text>
        </lyric>
      </note>
      <note>
        <pitch>
          <step>B</step>
          <alter>-1</alter>
          <octave>3</octave>
        </pitch>
        <duration>3</duration>
        <tie type='stop'/>
        <voice>1</voice>
        <type>quarter</type>
        <notations>
          <tied type='stop'/>
        </notations>
      </note>
    </measure>
    <measure number='4'>
      <harmony>
        <root>
          <root-step>C</root-step>
        </root>
        <kind>minor-seventh</kind>
      </harmony>
      <note>
        <pitch>
          <step>D</step>
          <octave>4</octave>
        </pitch>
        <duration>3</duration>
        <tie type='start'/>
        <voice>1</voice>
        <type>quarter</type>
        <notations>
          <tied type='start'/>
        </notations>
        <lyric number='1'>
          <syllabic>single</syllabic>
          <text>and</text>
        </lyric>
        <lyric number='2'>
          <syllabic>single</syllabic>
          <text>feels</text>
        </lyric>
      </note>
      <note>
        <pitch>
          <step>D</step>
          <octave>4</octave>
        </pitch>
        <duration>2</duration>
        <tie type='stop'/>
        <voice>1</voice>
        <type>eighth</type>
        <notations>
          <tied type='stop'/>
        </notations>
      </note>
      <note>
        <pitch>
          <step>E</step>
          <alter>-1</alter>
          <octave>4</octave>
        </pitch>
        <duration>1</duration>
        <tie type='start'/>
        <voice>1</voice>
        <type>eighth</type>
        <notations>
          <tied type='start'/>
        </notations>
        <lyric number='1'>
          <syllabic>single</syllabic>
          <text>the</text>
        </lyric>
        <lyric number='2'>
          <syllabic>single</syllabic>
          <text>a</text>
        </lyric>
      </note>
      <note>
        <pitch>
          <step>E</step>
          <alter>-1</alter>
          <octave>4</octave>
        </pitch>
        <duration>1</duration>
        <tie type='stop'/>
        <voice>1</voice>
        <type>eighth</type>
        <notations>
          <tied type='stop'/>
          <tuplet type='start'/>
        </notations>
        <time-modification>
          <actual-notes>3</actual-notes>
          <normal-notes>2</normal-notes>
        </time-modification>
      </note>
      <note>
        <pitch>
          <step>F</step>
          <octave>4</octave>
        </pitch>
        <duration>1</duration>
        <voice>1</voice>
        <type>eighth</type>
        <time-modification>
          <actual-notes>3</actual-notes>
          <normal-notes>2</normal-notes>
        </time-modification>
        <lyric number='1'>
          <syllabic>begin</syllabic>
          <text>wither</text>
        </lyric>
        <lyric number='2'>
          <syllabic>begin</syllabic>
          <text>win</text>
        </lyric>
      </note>
      <note>
        <pitch>
          <step>G</step>
          <octave>4</octave>
        </pitch>
        <duration>1</duration>
        <voice>1</voice>
        <type>eighth</type>
        <accidental>natural</accidental>
        <notations>
          <tuplet type='stop'/>
        </notations>
        <time-modification>
          <actual-notes>3</actual-notes>
          <normal-notes>2</normal-notes>
        </time-modification>
        <lyric number='1'>
          <syllabic>end</syllabic>
          <text>ed</text>
        </lyric>
        <lyric number='2'>
          <syllabic>end</syllabic>
          <text>ter</text>
        </lyric>
      </note>
    </measure>
    <measure number='5'>
      <harmony>
        <root>
          <root-step>G</root-step>
        </root>
        <kind>dominant</kind>
        <degree>
          <degree-value>5</degree-value>
          <degree-alter>-1</degree-alter>
          <degree-type>alter</degree-type>
        </degree>
        <degree>
          <degree-value>9</degree-value>
          <degree-alter>1</degree-alter>
          <degree-type>add</degree-type>
        </degree>
      </harmony>
      <note>
        <pitch>
          <step>D</step>
          <alter>-1</alter>
          <octave>4</octave>
        </pitch>
        <duration>3</duration>
        <voice>1</voice>
        <type>quarter</type>
        <accidental>flat</accidental>
        <lyric number='1'>
          <syllabic>single</syllabic>
          <text>leaves</text>
        </lyric>
        <lyric number='2'>
          <syllabic>single</syllabic>
          <text>chill</text>
        </lyric>
      </note>
      <note>
        <rest/>
        <duration>2</duration>
        <voice>1</voice>
        <type>eighth</type>
        <accidental>flat</accidental>
      </note>
      <note>
        <pitch>
          <step>C</step>
          <octave>4</octave>
        </pitch>
        <duration>1</duration>
        <voice>1</voice>
        <type>eighth</type>
        <accidental>natural</accidental>
        <lyric number='1'>
          <syllabic>single</syllabic>
          <text>drift</text>
        </lyric>
        <lyric number='2'>
          <syllabic>single</syllabic>
          <text>I&apos;ve</text>
        </lyric>
      </note>
      <note>
        <pitch>
          <step>E</step>
          <alter>-1</alter>
          <octave>4</octave>
        </pitch>
        <duration>1</duration>
        <voice>1</voice>
        <type>eighth</type>
        <notations>
          <tuplet type='start'/>
        </notations>
        <time-modification>
          <actual-notes>3</actual-notes>
          <normal-notes>2</normal-notes>
        </time-modification>
        <lyric number='1'>
          <syllabic>single</syllabic>
          <text>down</text>
        </lyric>
        <lyric number='2'>
          <syllabic>single</syllabic>
          <text>got</text>
        </lyric>
      </note>
      <note>
        <pitch>
          <step>F</step>
          <octave>4</octave>
        </pitch>
        <duration>1</duration>
        <voice>1</voice>
        <type>eighth</type>
        <time-modification>
          <actual-notes>3</actual-notes>
          <normal-notes>2</normal-notes>
        </time-modification>
        <lyric number='1'>
          <syllabic>single</syllabic>
          <text>from</text>
        </lyric>
        <lyric number='2'>
          <syllabic>single</syllabic>
          <text>to</text>
        </lyric>
      </note>
      <note>
        <pitch>
          <step>G</step>
          <alter>-1</alter>
          <octave>4</octave>
        </pitch>
        <duration>1</duration>
        <voice>1</voice>
        <type>eighth</type>
        <notations>
          <tuplet type='stop'/>
        </notations>
        <time-modification>
          <actual-notes>3</actual-notes>
          <normal-notes>2</normal-notes>
        </time-modification>
        <lyric number='1'>
          <syllabic>single</syllabic>
          <text>the</text>
        </lyric>
        <lyric number='2'>
          <syllabic>single</syllabic>
          <text>lay</text>
        </lyric>
      </note>
    </measure>
    <measure number='6'>
      <print new-system='yes'/>
      <harmony>
        <root>
          <root-step>C</root-step>
        </root>
        <kind>minor-seventh</kind>
      </harmony>
      <note>
        <pitch>
          <step>G</step>
          <octave>4</octave>
        </pitch>
        <duration>3</duration>
        <voice>1</voice>
        <type>quarter</type>
        <accidental>natural</accidental>
        <lyric number='1'>
          <syllabic>begin</syllabic>
          <text>dy</text>
        </lyric>
        <lyric number='2'>
          <syllabic>single</syllabic>
          <text>down</text>
        </lyric>
      </note>
      <note>
        <pitch>
          <step>E</step>
          <alter>-1</alter>
          <octave>4</octave>
        </pitch>
        <duration>2</duration>
        <voice>1</voice>
        <type>eighth</type>
        <lyric number='1'>
          <syllabic>end</syllabic>
          <text>ing</text>
        </lyric>
        <lyric number='2'>
          <syllabic>single</syllabic>
          <text>and</text>
        </lyric>
      </note>
      <note>
        <pitch>
          <step>C</step>
          <octave>4</octave>
        </pitch>
        <duration>1</duration>
        <tie type='start'/>
        <voice>1</voice>
        <type>eighth</type>
        <notations>
          <tied type='start'/>
        </notations>
        <lyric number='1'>
          <syllabic>single</syllabic>
          <text>trees</text>
        </lyric>
        <lyric number='2'>
          <syllabic>single</syllabic>
          <text>cry.</text>
        </lyric>
      </note>
      <note>
        <pitch>
          <step>C</step>
          <octave>4</octave>
        </pitch>
        <duration>3</duration>
        <tie type='stop'/>
        <voice>1</voice>
        <type>quarter</type>
        <notations>
          <tied type='stop'/>
        </notations>
      </note>
    </measure>
    <measure number='7'>
      <harmony>
        <root>
          <root-step>B</root-step>
          <root-alter>-1</root-alter>
        </root>
        <kind>dominant</kind>
      </harmony>
      <note>
        <pitch>
          <step>F</step>
          <octave>4</octave>
        </pitch>
        <duration>3</duration>
        <voice>1</voice>
        <type>quarter</type>
        <lyric number='1'>
          <syllabic>single</syllabic>
          <text>as</text>
        </lyric>
        <lyric number='2'>
          <syllabic>single</syllabic>
          <text>But</text>
        </lyric>
      </note>
      <note>
        <pitch>
          <step>D</step>
          <octave>4</octave>
        </pitch>
        <duration>2</duration>
        <voice>1</voice>
        <type>eighth</type>
        <lyric number='1'>
          <syllabic>single</syllabic>
          <text>they</text>
        </lyric>
        <lyric number='2'>
          <syllabic>single</syllabic>
          <text>I</text>
        </lyric>
      </note>
      <note>
        <pitch>
          <step>B</step>
          <alter>-1</alter>
          <octave>3</octave>
        </pitch>
        <duration>1</duration>
        <tie type='start'/>
        <voice>1</voice>
        <type>eighth</type>
        <notations>
          <tied type='start'/>
        </notations>
        <lyric number='1'>
          <syllabic>single</syllabic>
          <text>find</text>
        </lyric>
        <lyric number='2'>
          <syllabic>single</syllabic>
          <text>know,</text>
        </lyric>
      </note>
      <note>
        <pitch>
          <step>B</step>
          <alter>-1</alter>
          <octave>3</octave>
        </pitch>
        <duration>2</duration>
        <tie type='stop'/>
        <voice>1</voice>
        <type>eighth</type>
        <notations>
          <tied type='stop'/>
        </notations>
      </note>
      <note>
        <pitch>
          <step>F</step>
          <octave>3</octave>
        </pitch>
        <duration>1</duration>
        <voice>1</voice>
        <type>eighth</type>
        <lyric number='1'>
          <syllabic>begin</syllabic>
          <text>re</text>
        </lyric>
        <lyric number='2'>
          <syllabic>single</syllabic>
          <text>by_and</text>
        </lyric>
      </note>
    </measure>
    <measure number='8'>
      <harmony>
        <root>
          <root-step>A</root-step>
          <root-alter>-1</root-alter>
        </root>
        <kind>dominant</kind>
      </harmony>
      <note>
        <pitch>
          <step>A</step>
          <alter>-1</alter>
          <octave>3</octave>
        </pitch>
        <duration>6</duration>
        <voice>1</voice>
        <type>half</type>
        <accidental>flat</accidental>
        <lyric number='1'>
          <syllabic>single</syllabic>
          <text>lease.</text>
        </lyric>
        <lyric number='2'>
          <syllabic>single</syllabic>
          <text>by,</text>
        </lyric>
      </note>
      <note>
        <pitch>
          <step>G</step>
          <octave>3</octave>
        </pitch>
        <duration>3</duration>
        <voice>1</voice>
        <type>quarter</type>
        <accidental>natural</accidental>
        <lyric number='1'>
          <syllabic>single</syllabic>
          <text>But</text>
        </lyric>
        <lyric number='2'>
          <syllabic>single</syllabic>
          <text>that</text>
        </lyric>
      </note>
    </measure>
    <measure number='9'>
      <harmony>
        <root>
          <root-step>G</root-step>
        </root>
        <kind>minor-seventh</kind>
      </harmony>
      <note>
        <pitch>
          <step>C</step>
          <octave>5</octave>
        </pitch>
        <duration>3</duration>
        <tie type='start'/>
        <voice>1</voice>
        <type>quarter</type>
        <notations>
          <tied type='start'/>
        </notations>
        <lyric number='1'>
          <syllabic>single</syllabic>
          <text>I&apos;ll</text>
        </lyric>
        <lyric number='2'>
          <syllabic>single</syllabic>
          <text>I&apos;ll</text>
        </lyric>
      </note>
      <note>
        <pitch>
          <step>C</step>
          <octave>5</octave>
        </pitch>
        <duration>2</duration>
        <tie type='stop'/>
        <voice>1</voice>
        <type>eighth</type>
        <notations>
          <tied type='stop'/>
        </notations>
      </note>
      <note>
        <pitch>
          <step>B</step>
          <alter>-1</alter>
          <octave>4</octave>
        </pitch>
        <duration>1</duration>
        <tie type='start'/>
        <voice>1</voice>
        <type>eighth</type>
        <notations>
          <tied type='start'/>
        </notations>
        <lyric number='1'>
          <syllabic>begin</syllabic>
          <text>re</text>
        </lyric>
        <lyric number='2'>
          <syllabic>begin</syllabic>
          <text>re</text>
        </lyric>
      </note>
      <harmony>
        <root>
          <root-step>C</root-step>
        </root>
        <kind>dominant</kind>
        <degree>
          <degree-value>9</degree-value>
          <degree-alter>-1</degree-alter>
          <degree-type>add</degree-type>
        </degree>
      </harmony>
      <note>
        <pitch>
          <step>B</step>
          <alter>-1</alter>
          <octave>4</octave>
        </pitch>
        <duration>3</duration>
        <tie type='stop'/>
        <voice>1</voice>
        <type>quarter</type>
        <notations>
          <tied type='stop'/>
        </notations>
      </note>
    </measure>
    <measure number='10'>
      <print new-system='yes'/>
      <harmony>
        <root>
          <root-step>F</root-step>
        </root>
        <kind>minor-seventh</kind>
      </harmony>
      <note>
        <pitch>
          <step>B</step>
          <alter>-1</alter>
          <octave>4</octave>
        </pitch>
        <duration>1</duration>
        <voice>1</voice>
        <type>eighth</type>
        <notations>
          <tuplet type='start'/>
        </notations>
        <time-modification>
          <actual-notes>3</actual-notes>
          <normal-notes>2</normal-notes>
        </time-modification>
        <lyric number='1'>
          <syllabic>begin</syllabic>
          <text>mem</text>
        </lyric>
        <lyric number='2'>
          <syllabic>begin</syllabic>
          <text>mem</text>
        </lyric>
      </note>
      <note>
        <pitch>
          <step>A</step>
          <alter>-1</alter>
          <octave>4</octave>
        </pitch>
        <duration>1</duration>
        <voice>1</voice>
        <type>eighth</type>
        <accidental>flat</accidental>
        <time-modification>
          <actual-notes>3</actual-notes>
          <normal-notes>2</normal-notes>
        </time-modification>
        <lyric number='1'>
          <syllabic>end</syllabic>
          <text>ber</text>
        </lyric>
        <lyric number='2'>
          <syllabic>end</syllabic>
          <text>ber</text>
        </lyric>
      </note>
      <note>
        <pitch>
          <step>G</step>
          <octave>4</octave>
        </pitch>
        <duration>1</duration>
        <tie type='start'/>
        <voice>1</voice>
        <type>eighth</type>
        <accidental>natural</accidental>
        <notations>
          <tied type='start'/>
          <tuplet type='stop'/>
        </notations>
        <time-modification>
          <actual-notes>3</actual-notes>
          <normal-notes>2</normal-notes>
        </time-modification>
        <lyric number='1'>
          <syllabic>single</syllabic>
          <text>it:</text>
        </lyric>
        <lyric number='2'>
          <syllabic>single</syllabic>
          <text>it:</text>
        </lyric>
      </note>
      <note>
        <pitch>
          <step>G</step>
          <octave>4</octave>
        </pitch>
        <duration>6</duration>
        <tie type='stop'/>
        <tie type='start'/>
        <voice>1</voice>
        <type>half</type>
        <notations>
          <tied type='stop'/>
          <tied type='start'/>
        </notations>
      </note>
    </measure>
    <measure number='11'>
      <note>
        <pitch>
          <step>G</step>
          <octave>4</octave>
        </pitch>
        <duration>6</duration>
        <tie type='stop'/>
        <tie type='start'/>
        <voice>1</voice>
        <type>half</type>
        <accidental>natural</accidental>
        <notations>
          <tied type='stop'/>
          <tied type='start'/>
        </notations>
      </note>
      <note>
        <pitch>
          <step>G</step>
          <octave>4</octave>
        </pitch>
        <duration>3</duration>
        <tie type='stop'/>
        <voice>1</voice>
        <type>quarter</type>
        <notations>
          <tied type='stop'/>
        </notations>
      </note>
    </measure>
    <measure number='12'>
      <harmony>
        <root>
          <root-step>G</root-step>
        </root>
        <kind>minor-seventh</kind>
      </harmony>
      <note>
        <rest/>
        <duration>3</duration>
        <voice>1</voice>
        <type>quarter</type>
        <accidental>flat</accidental>
      </note>
      <note>
        <pitch>
          <step>B</step>
          <alter>-1</alter>
          <octave>3</octave>
        </pitch>
        <duration>2</duration>
        <voice>1</voice>
        <type>eighth</type>
        <lyric number='1'>
          <syllabic>single</syllabic>
          <text>The</text>
        </lyric>
        <lyric number='2'>
          <syllabic>single</syllabic>
          <text>The</text>
        </lyric>
      </note>
      <note>
        <pitch>
          <step>B</step>
          <alter>-1</alter>
          <octave>4</octave>
        </pitch>
        <duration>1</duration>
        <tie type='start'/>
        <voice>1</voice>
        <type>eighth</type>
        <notations>
          <tied type='start'/>
        </notations>
        <lyric number='1'>
          <syllabic>single</syllabic>
          <text>sweet</text>
        </lyric>
        <lyric number='2'>
          <syllabic>single</syllabic>
          <text>sweet</text>
        </lyric>
      </note>
      <note>
        <pitch>
          <step>B</step>
          <alter>-1</alter>
          <octave>4</octave>
        </pitch>
        <duration>3</duration>
        <tie type='stop'/>
        <tie type='start'/>
        <voice>1</voice>
        <type>quarter</type>
        <notations>
          <tied type='stop'/>
          <tied type='start'/>
        </notations>
      </note>
    </measure>
    <measure number='13'>
      <harmony>
        <root>
          <root-step>C</root-step>
        </root>
        <kind>dominant</kind>
        <degree>
          <degree-value>5</degree-value>
          <degree-alter>-1</degree-alter>
          <degree-type>alter</degree-type>
        </degree>
        <degree>
          <degree-value>9</degree-value>
          <degree-alter>1</degree-alter>
          <degree-type>add</degree-type>
        </degree>
      </harmony>
      <note>
        <pitch>
          <step>B</step>
          <alter>-1</alter>
          <octave>4</octave>
        </pitch>
        <duration>6</duration>
        <tie type='stop'/>
        <tie type='start'/>
        <voice>1</voice>
        <type>half</type>
        <notations>
          <tied type='stop'/>
          <tied type='start'/>
        </notations>
      </note>
      <note>
        <pitch>
          <step>B</step>
          <alter>-1</alter>
          <octave>4</octave>
        </pitch>
        <duration>3</duration>
        <tie type='stop'/>
        <voice>1</voice>
        <type>quarter</type>
        <notations>
          <tied type='stop'/>
        </notations>
      </note>
    </measure>
    <measure number='14'>
      <print new-system='yes'/>
      <harmony>
        <root>
          <root-step>F</root-step>
        </root>
        <kind>minor-seventh</kind>
      </harmony>
      <note>
        <pitch>
          <step>B</step>
          <alter>-1</alter>
          <octave>4</octave>
        </pitch>
        <duration>2</duration>
        <voice>1</voice>
        <type>eighth</type>
        <lyric number='1'>
          <syllabic>begin</syllabic>
          <text>per</text>
        </lyric>
      </note>
      <note>
        <pitch>
          <step>A</step>
          <alter>-1</alter>
          <octave>4</octave>
        </pitch>
        <duration>1</duration>
        <voice>1</voice>
        <type>eighth</type>
        <accidental>flat</accidental>
        <lyric number='1'>
          <syllabic>end</syllabic>
          <text>fume</text>
        </lyric>
      </note>
      <note>
        <pitch>
          <step>G</step>
          <octave>4</octave>
        </pitch>
        <duration>6</duration>
        <tie type='start'/>
        <voice>1</voice>
        <type>half</type>
        <accidental>natural</accidental>
        <notations>
          <tied type='start'/>
        </notations>
        <lyric number='1'>
          <syllabic>single</syllabic>
          <text>of</text>
        </lyric>
      </note>
    </measure>
    <measure number='15'>
      <harmony>
        <root>
          <root-step>F</root-step>
        </root>
        <kind>minor-seventh</kind>
        <bass>
          <bass-step>E</bass-step>
          <bass-alter>-1</bass-alter>
        </bass>
      </harmony>
      <note>
        <pitch>
          <step>G</step>
          <octave>4</octave>
        </pitch>
        <duration>6</duration>
        <tie type='stop'/>
        <tie type='start'/>
        <voice>1</voice>
        <type>half</type>
        <accidental>natural</accidental>
        <notations>
          <tied type='stop'/>
          <tied type='start'/>
        </notations>
      </note>
      <note>
        <pitch>
          <step>G</step>
          <octave>4</octave>
        </pitch>
        <duration>3</duration>
        <tie type='stop'/>
        <voice>1</voice>
        <type>quarter</type>
        <notations>
          <tied type='stop'/>
        </notations>
      </note>
    </measure>
    <measure number='16'>
      <attributes>
        <divisions>4</divisions>
      </attributes>
      <harmony>
        <root>
          <root-step>D</root-step>
        </root>
        <kind>half-diminished</kind>
      </harmony>
      <note>
        <pitch>
          <step>E</step>
          <alter>-1</alter>
          <octave>4</octave>
        </pitch>
        <duration>2</duration>
        <tie type='start'/>
        <voice>1</voice>
        <type>eighth</type>
        <notations>
          <tied type='start'/>
        </notations>
        <lyric number='1'>
          <syllabic>single</syllabic>
          <text>orange</text>
        </lyric>
      </note>
      <note>
        <pitch>
          <step>E</step>
          <alter>-1</alter>
          <octave>4</octave>
        </pitch>
        <duration>1</duration>
        <tie type='stop'/>
        <voice>1</voice>
        <type>16th</type>
        <notations>
          <tied type='stop'/>
        </notations>
      </note>
      <note>
        <pitch>
          <step>F</step>
          <octave>4</octave>
        </pitch>
        <duration>1</duration>
        <tie type='start'/>
        <voice>1</voice>
        <type>16th</type>
        <notations>
          <tied type='start'/>
        </notations>
        <lyric number='1'>
          <syllabic>begin</syllabic>
          <text>blos</text>
        </lyric>
      </note>
      <note>
        <pitch>
          <step>F</step>
          <octave>4</octave>
        </pitch>
        <duration>2</duration>
        <tie type='stop'/>
        <voice>1</voice>
        <type>eighth</type>
        <notations>
          <tied type='stop'/>
        </notations>
      </note>
      <note>
        <pitch>
          <step>E</step>
          <alter>-1</alter>
          <octave>4</octave>
        </pitch>
        <duration>2</duration>
        <tie type='start'/>
        <voice>1</voice>
        <type>eighth</type>
        <notations>
          <tied type='start'/>
        </notations>
        <lyric number='1'>
          <syllabic>end</syllabic>
          <text>soms</text>
        </lyric>
      </note>
      <note>
        <pitch>
          <step>E</step>
          <alter>-1</alter>
          <octave>4</octave>
        </pitch>
        <duration>1</duration>
        <tie type='stop'/>
        <voice>1</voice>
        <type>16th</type>
        <notations>
          <tied type='stop'/>
        </notations>
      </note>
      <note>
        <pitch>
          <step>F</step>
          <octave>4</octave>
        </pitch>
        <duration>2</duration>
        <tie type='start'/>
        <voice>1</voice>
        <type>eighth</type>
        <notations>
          <tied type='start'/>
        </notations>
        <lyric number='1'>
          <syllabic>single</syllabic>
          <text>in</text>
        </lyric>
      </note>
      <note>
        <pitch>
          <step>F</step>
          <octave>4</octave>
        </pitch>
        <duration>1</duration>
        <tie type='stop'/>
        <voice>1</voice>
        <type>16th</type>
        <notations>
          <tied type='stop'/>
        </notations>
      </note>
    </measure>
    <measure number='17'>
      <attributes>
        <divisions>3</divisions>
      </attributes>
      <harmony>
        <root>
          <root-step>G</root-step>
        </root>
        <kind>dominant</kind>
        <degree>
          <degree-value>9</degree-value>
          <degree-alter>-1</degree-alter>
          <degree-type>add</degree-type>
        </degree>
      </harmony>
      <note>
        <pitch>
          <step>G</step>
          <octave>4</octave>
        </pitch>
        <duration>3</duration>
        <tie type='start'/>
        <voice>1</voice>
        <type>quarter</type>
        <accidental>natural</accidental>
        <notations>
          <tied type='start'/>
        </notations>
        <lyric number='1'>
          <syllabic>begin</syllabic>
          <text>sum</text>
        </lyric>
      </note>
      <note>
        <pitch>
          <step>G</step>
          <octave>4</octave>
        </pitch>
        <duration>2</duration>
        <tie type='stop'/>
        <voice>1</voice>
        <type>eighth</type>
        <notations>
          <tied type='stop'/>
        </notations>
      </note>
      <note>
        <pitch>
          <step>E</step>
          <alter>-1</alter>
          <octave>4</octave>
        </pitch>
        <duration>1</duration>
        <tie type='start'/>
        <voice>1</voice>
        <type>eighth</type>
        <notations>
          <tied type='start'/>
        </notations>
        <lyric number='1'>
          <syllabic>middle</syllabic>
          <text>mer</text>
        </lyric>
      </note>
      <note>
        <pitch>
          <step>E</step>
          <alter>-1</alter>
          <octave>4</octave>
        </pitch>
        <duration>3</duration>
        <tie type='stop'/>
        <voice>1</voice>
        <type>quarter</type>
        <notations>
          <tied type='stop'/>
        </notations>
      </note>
    </measure>
    <measure number='18'>
      <print new-system='yes'/>
      <harmony>
        <root>
          <root-step>C</root-step>
        </root>
        <kind>minor-seventh</kind>
      </harmony>
      <note>
        <pitch>
          <step>D</step>
          <octave>4</octave>
        </pitch>
        <duration>6</duration>
        <tie type='start'/>
        <voice>1</voice>
        <type>half</type>
        <notations>
          <tied type='start'/>
        </notations>
        <lyric number='1'>
          <syllabic>single</syllabic>
          <text>time.</text>
        </lyric>
      </note>
      <note>
        <pitch>
          <step>D</step>
          <octave>4</octave>
        </pitch>
        <duration>3</duration>
        <tie type='stop'/>
        <voice>1</voice>
        <type>quarter</type>
        <notations>
          <tied type='stop'/>
        </notations>
      </note>
    </measure>
    <measure number='19'>
      <harmony>
        <root>
          <root-step>G</root-step>
        </root>
        <kind>dominant</kind>
        <degree>
          <degree-value>5</degree-value>
          <degree-alter>-1</degree-alter>
          <degree-type>alter</degree-type>
        </degree>
        <degree>
          <degree-value>9</degree-value>
          <degree-alter>1</degree-alter>
          <degree-type>add</degree-type>
        </degree>
      </harmony>
      <note>
        <rest/>
        <duration>6</duration>
        <voice>1</voice>
        <type>half</type>
        <accidental>flat</accidental>
      </note>
      <note>
        <rest/>
        <duration>3</duration>
        <voice>1</voice>
        <type>quarter</type>
      </note>
      <sound tocoda='A'/>
      <barline location='right'>
        <coda/>
      </barline>
    </measure>
    <measure number='20'>
      <harmony>
        <root>
          <root-step>C</root-step>
        </root>
        <kind>minor-seventh</kind>
      </harmony>
      <note>
        <rest/>
        <duration>6</duration>
        <voice>1</voice>
        <type>half</type>
        <accidental>flat</accidental>
      </note>
      <note>
        <rest/>
        <duration>3</duration>
        <voice>1</voice>
        <type>quarter</type>
      </note>
    </measure>
    <measure number='21'>
      <barline location='left'>
        <ending number='1' type='start'/>
      </barline>
      <harmony>
        <root>
          <root-step>G</root-step>
        </root>
        <kind>dominant</kind>
      </harmony>
      <note>
        <rest/>
        <duration>3</duration>
        <voice>1</voice>
        <type>quarter</type>
        <accidental>flat</accidental>
      </note>
      <note>
        <rest/>
        <duration>2</duration>
        <voice>1</voice>
        <type>eighth</type>
      </note>
      <note>
        <pitch>
          <step>C</step>
          <octave>4</octave>
        </pitch>
        <duration>1</duration>
        <voice>1</voice>
        <type>eighth</type>
        <accidental>natural</accidental>
        <lyric number='1'>
          <syllabic>single</syllabic>
          <text>And</text>
        </lyric>
      </note>
      <note>
        <pitch>
          <step>E</step>
          <alter>-1</alter>
          <octave>4</octave>
        </pitch>
        <duration>1</duration>
        <voice>1</voice>
        <type>eighth</type>
        <notations>
          <tuplet type='start'/>
        </notations>
        <time-modification>
          <actual-notes>3</actual-notes>
          <normal-notes>2</normal-notes>
        </time-modification>
        <lyric number='1'>
          <syllabic>single</syllabic>
          <text>when</text>
        </lyric>
      </note>
      <note>
        <pitch>
          <step>F</step>
          <octave>4</octave>
        </pitch>
        <duration>1</duration>
        <voice>1</voice>
        <type>eighth</type>
        <time-modification>
          <actual-notes>3</actual-notes>
          <normal-notes>2</normal-notes>
        </time-modification>
        <lyric number='1'>
          <syllabic>single</syllabic>
          <text>we</text>
        </lyric>
      </note>
      <note>
        <pitch>
          <step>G</step>
          <alter>-1</alter>
          <octave>4</octave>
        </pitch>
        <duration>1</duration>
        <voice>1</voice>
        <type>eighth</type>
        <notations>
          <tuplet type='stop'/>
        </notations>
        <time-modification>
          <actual-notes>3</actual-notes>
          <normal-notes>2</normal-notes>
        </time-modification>
        <lyric number='1'>
          <syllabic>single</syllabic>
          <text>are</text>
        </lyric>
      </note>
      <barline location='right'>
        <bar-style>light-heavy</bar-style>
        <ending number='1' type='stop'/>
        <repeat direction='backward'/>
      </barline>
    </measure>
    <measure number='22'>
      <barline location='left'>
        <ending number='2' type='start'/>
      </barline>
      <harmony>
        <root>
          <root-step>G</root-step>
        </root>
        <kind>dominant</kind>
      </harmony>
      <note>
        <rest/>
        <duration>6</duration>
        <voice>1</voice>
        <type>half</type>
        <accidental>flat</accidental>
      </note>
      <note>
        <rest/>
        <duration>3</duration>
        <voice>1</voice>
        <type>quarter</type>
      </note>
      <barline location='right'>
        <bar-style>light-heavy</bar-style>
        <ending number='2' type='discontinue'/>
      </barline>
    </measure>
    <measure number='23'>
      <barline location='left'>
        <coda/>
      </barline>
      <sound coda='A'/>
      <harmony>
        <root>
          <root-step>C</root-step>
        </root>
        <kind>minor-seventh</kind>
      </harmony>
      <note>
        <rest/>
        <duration>6</duration>
        <voice>1</voice>
        <type>half</type>
        <accidental>flat</accidental>
      </note>
      <note>
        <pitch>
          <step>F</step>
          <octave>4</octave>
        </pitch>
        <duration>3</duration>
        <voice>1</voice>
        <type>quarter</type>
        <lyric number='1'>
          <syllabic>single</syllabic>
          <text>in</text>
        </lyric>
      </note>
    </measure>
    <measure number='24'>
      <harmony>
        <root>
          <root-step>G</root-step>
        </root>
        <kind>dominant</kind>
        <degree>
          <degree-value>9</degree-value>
          <degree-alter>-1</degree-alter>
          <degree-type>add</degree-type>
        </degree>
      </harmony>
      <note>
        <pitch>
          <step>G</step>
          <octave>4</octave>
        </pitch>
        <duration>6</duration>
        <voice>1</voice>
        <type>half</type>
        <accidental>natural</accidental>
        <lyric number='1'>
          <syllabic>begin</syllabic>
          <text>sum</text>
        </lyric>
      </note>
      <note>
        <pitch>
          <step>E</step>
          <alter>-1</alter>
          <octave>4</octave>
        </pitch>
        <duration>3</duration>
        <voice>1</voice>
        <type>quarter</type>
        <lyric number='1'>
          <syllabic>end</syllabic>
          <text>mer</text>
        </lyric>
      </note>
    </measure>
    <measure number='25'>
      <harmony>
        <root>
          <root-step>C</root-step>
        </root>
        <kind>minor-seventh</kind>
      </harmony>
      <note>
        <pitch>
          <step>G</step>
          <octave>4</octave>
        </pitch>
        <duration>6</duration>
        <tie type='start'/>
        <voice>1</voice>
        <type>half</type>
        <accidental>natural</accidental>
        <notations>
          <tied type='start'/>
        </notations>
        <lyric number='1'>
          <syllabic>single</syllabic>
          <text>time</text>
        </lyric>
      </note>
      <note>
        <pitch>
          <step>G</step>
          <octave>4</octave>
        </pitch>
        <duration>3</duration>
        <tie type='stop'/>
        <voice>1</voice>
        <type>quarter</type>
        <notations>
          <tied type='stop'/>
        </notations>
      </note>
    </measure>
    <measure number='26'>
      <harmony>
        <root>
          <root-step>G</root-step>
        </root>
        <kind>dominant</kind>
        <degree>
          <degree-value>5</degree-value>
          <degree-alter>-1</degree-alter>
          <degree-type>alter</degree-type>
        </degree>
        <degree>
          <degree-value>9</degree-value>
          <degree-alter>1</degree-alter>
          <degree-type>add</degree-type>
        </degree>
      </harmony>
      <note>
        <rest/>
        <duration>6</duration>
        <voice>1</voice>
        <type>half</type>
        <accidental>flat</accidental>
      </note>
      <note>
        <rest/>
        <duration>3</duration>
        <voice>1</voice>
        <type>quarter</type>
      </note>
    </measure>
    <measure number='27'>
      <harmony>
        <root>
          <root-step>C</root-step>
        </root>
        <kind>minor-seventh</kind>
      </harmony>
      <note>
        <rest/>
        <duration>6</duration>
        <voice>1</voice>
        <type>half</type>
        <accidental>flat</accidental>
      </note>
      <note>
        <rest/>
        <duration>3</duration>
        <voice>1</voice>
        <type>quarter</type>
      </note>
    </measure>
    <measure number='28'>
      <harmony>
        <root>
          <root-step>G</root-step>
        </root>
        <kind>dominant</kind>
        <degree>
          <degree-value>9</degree-value>
          <degree-alter>-1</degree-alter>
          <degree-type>add</degree-type>
        </degree>
      </harmony>
      <note>
        <pitch>
          <step>G</step>
          <octave>4</octave>
        </pitch>
        <duration>6</duration>
        <voice>1</voice>
        <type>half</type>
        <accidental>natural</accidental>
        <lyric number='1'>
          <syllabic>begin</syllabic>
          <text>sum</text>
        </lyric>
      </note>
      <note>
        <pitch>
          <step>D</step>
          <octave>5</octave>
        </pitch>
        <duration>3</duration>
        <voice>1</voice>
        <type>quarter</type>
        <lyric number='1'>
          <syllabic>end</syllabic>
          <text>mer</text>
        </lyric>
      </note>
    </measure>
    <measure number='29'>
      <harmony>
        <root>
          <root-step>C</root-step>
        </root>
        <kind>major-minor</kind>
      </harmony>
      <note>
        <pitch>
          <step>B</step>
          <octave>4</octave>
        </pitch>
        <duration>6</duration>
        <tie type='start'/>
        <voice>1</voice>
        <type>half</type>
        <accidental>natural</accidental>
        <notations>
          <tied type='start'/>
        </notations>
        <lyric number='1'>
          <syllabic>single</syllabic>
          <text>time</text>
        </lyric>
      </note>
      <note>
        <pitch>
          <step>B</step>
          <octave>4</octave>
        </pitch>
        <duration>3</duration>
        <tie type='stop'/>
        <voice>1</voice>
        <type>quarter</type>
        <notations>
          <tied type='stop'/>
        </notations>
      </note>
    </measure>
  </part>
</score-partwise>